# xmcd
# Track frame offsets:
# 150
# 11407
# 26069
# 39316
# 49675
# 61914
# 78181
# 88548
# 98945
# 119158
# 132478
# 141335
# 151056
# 159788
# 169102
# 180090
# 189426
#
# Disc length: 2650 seconds
# Revision: 0
# Processed by: cddbd v1.4PL0 Copyright (c) Steve Scherf et al.
# Submitted via: VisiTrax 2.9.3.171 - For more info visit www.synapsa.com
#
DISCID=cd0a5811
DTITLE=Lynn, Loretta - Coal Miner's Daugher
DYEAR=1900
DGENRE=Country
TTITLE0=Hey Loretta
TTITLE1=Coal Miner's Daughter
TTITLE2=Let Your Love Flow
TTITLE3=You're Lookin' At Country
TTITLE4=Me And Bobby McGee
TTITLE5=One's On The Way - The Pill
TTITLE6=Out Of My Head And Back In My Bed
TTITLE7=Somebody Somewhere
TTITLE8=I Fall To Pieces - Walkin' After Midnight - Crazy
TTITLE9=Back In Baby's Arms - She's Got You
TTITLE10=They Don't Make 'Em Like My Daddy
TTITLE11=You Ain't Woman Enough
TTITLE12=We've Come A Long Way Baby
TTITLE13=Your Squaw Is On The Warpath
TTITLE14=Spring Fever
TTITLE15=Fist City
TTITLE16=Y'all Come
EXTD=
EXTT0=
EXTT1=
EXTT2=
EXTT3=
EXTT4=
EXTT5=
EXTT6=
EXTT7=
EXTT8=
EXTT9=
EXTT10=
EXTT11=
EXTT12=
EXTT13=
EXTT14=
EXTT15=
EXTT16=
PLAYORDER=
